# xmcd
#
# Track frame offsets:
#	150
#	10369
#	27703
#	42713
#	58496
#	81344
#	91570
#	110549
#	131948
#	142621
#	162206
#
# Disc length: 2367 seconds
#
# Revision: 1
# Processed by: cddbd v1.5.2PL0 Copyright (c) Steve Scherf et al.
# Submitted via: audiograbber 1.83.01
#
DISCID=98093d0b
DTITLE=Ron Bridgewater - The River
DYEAR=2010
DGENRE=Christian
TTITLE0=Got my Reservation
TTITLE1=Mercy Came Down
TTITLE2=He Took the Sting Away
TTITLE3=Who do you think?
TTITLE4=The River
TTITLE5=Sent the Light
TTITLE6=Untitled Hymn (Come to Jesus)
TTITLE7=Jesus and my Dad
TTITLE8=I'll Fly Away
TTITLE9=Amazing Grace (My Chains are Gone)
TTITLE10=I Surrender All
EXTD=
EXTT0=
EXTT1=
EXTT2=
EXTT3=
EXTT4=
EXTT5=
EXTT6=
EXTT7=
EXTT8=
EXTT9=
EXTT10=
PLAYORDER=
